#!OML:ASF H:\Male1\Project 1\Capture day 1\Session 1\Male1.ASF
:FULLY-SPECIFIED
:DEGREES
238
root 13.1713 20.3926 0.435258 -112.947 -85.4905 116.316
lowerback 17.0237 1.91048 -3.26856
upperback 6.92332 1.32555 -4.37089
thorax -2.11782 0.454507 -3.00147
lowerneck -10.3176 2.74124 5.56565
upperneck 20.6528 2.31348 0.368524
head 8.17855 1.43458 -0.591599
rclavicle 1.63003e-014 7.87187e-014
rhumerus -37.2816 5.67814 -86.0424
rradius 49.6177
rwrist -23.3194
rhand -17.661 -0.494265
rfingers 7.12502
rthumb 8.5975 -30.2992
lclavicle 1.63003e-014 7.87187e-014
lhumerus -16.3559 -18.5099 75.922
lradius 40.3084
lwrist 3.31682
lhand -22.2074 7.41456
lfingers 7.12502
lthumb 4.20848 37.3527
rfemur -0.814239 16.8237 21.7893
rtibia 19.2343
rfoot -4.91271 -28.5968
rtoes -17.9353
lfemur -43.0652 -10.4729 -29.5183
ltibia 68.5349
lfoot -28.6904 13.1228
ltoes -5.36969
239
root 13.2143 20.2565 0.42581 -107.627 -85.3653 110.999
lowerback 17.3063 1.92405 -3.17225
upperback 6.96153 1.33474 -4.41435
thorax -2.22125 0.459208 -3.11215
lowerneck -10.4743 2.57388 5.43864
upperneck 20.5986 2.10419 0.379636
head 8.18042 1.32961 -0.586433
rclavicle -2.62396e-014 9.54166e-015
rhumerus -37.5604 5.54402 -85.7517
rradius 49.8371
rwrist -23.6451
rhand -17.8227 -0.659513
rfingers 7.12502
rthumb 8.44141 -30.4708
lclavicle -2.62396e-014 9.54166e-015
lhumerus -15.7947 -18.9885 75.6293
lradius 40.466
lwrist 3.20382
lhand -21.7057 7.71775
lfingers 7.12502
lthumb 4.69299 37.6458
rfemur -0.422699 17.6959 21.5545
rtibia 18.217
rfoot -4.95707 -29.0939
rtoes -16.082
lfemur -44.4092 -10.8199 -29.8116
ltibia 70.4163
lfoot -29.1025 13.1996
ltoes -5.69403
240
root 13.257 20.1163 0.416301 -101.554 -85.287 104.91
lowerback 17.5605 1.89069 -3.00895
upperback 6.99399 1.30151 -4.40707
thorax -2.31708 0.444744 -3.19795
lowerneck -10.6276 2.41568 5.31955
upperneck 20.5922 1.91821 0.326782
head 8.19911 1.23034 -0.60162
rclavicle -1.35174e-014 -1.03368e-014
rhumerus -37.8577 5.45844 -85.4304
rradius 50.0481
rwrist -23.9628
rhand -17.8728 -0.860648
rfingers 7.12502
rthumb 8.3931 -30.6739
lclavicle -1.35174e-014 -1.03368e-014
lhumerus -15.3143 -19.3248 75.3962
lradius 40.6985
lwrist 3.18966
lhand -21.3251 8.01626
lfingers 7.12502
lthumb 5.06047 37.9358
rfemur -0.0558508 18.2361 21.4308
rtibia 17.4026
rfoot -4.88717 -29.4494
rtoes -13.3016
lfemur -45.7413 -11.2891 -30.0523
ltibia 72.3042
lfoot -29.4659 13.3117
ltoes -6.11301
241
root 13.3005 19.9716 0.40552 -94.9457 -85.1944 98.2607
lowerback 17.7979 1.82984 -2.84342
upperback 7.02475 1.23902 -4.35296
thorax -2.4081 0.416086 -3.22873
lowerneck -10.7727 2.26638 5.19957
upperneck 20.5792 1.75735 0.222245
head 8.21515 1.13792 -0.631546
rclavicle 2.38542e-015 -3.49861e-014
rhumerus -38.1591 5.40696 -85.0739
rradius 50.2612
rwrist -24.2684
rhand -17.8237 -1.08243
rfingers 7.12502
rthumb 8.44046 -30.8938
lclavicle 2.38542e-015 -3.49861e-014
lhumerus -14.925 -19.5519 75.2209
lradius 41.0349
lwrist 3.29014
lhand -21.1725 8.27824
lfingers 7.12502
lthumb 5.20775 38.1942
rfemur 0.215248 18.5306 21.4136
rtibia 16.9327
rfoot -4.83685 -29.7494
rtoes -10.0416
lfemur -47.0537 -11.8518 -30.2735
ltibia 74.1918
lfoot -29.7551 13.5283
ltoes -6.79787
242
root 13.3457 19.8227 0.39242 -88.1255 -85.0309 91.353
lowerback 18.0557 1.76237 -2.73065
upperback 7.05794 1.16086 -4.26435
thorax -2.50968 0.378529 -3.18988
lowerneck -10.9243 2.12315 5.08908
upperneck 20.5613 1.61108 0.0829463
head 8.23144 1.04978 -0.673226
rclavicle -1.49089e-014 1.63003e-014
rhumerus -38.4611 5.36791 -84.6858
rradius 50.4862
rwrist -24.5714
rhand -17.7094 -1.33613
rfingers 7.12502
rthumb 8.55074 -31.143
lclavicle -1.49089e-014 1.63003e-014
lhumerus -14.6303 -19.7352 75.092
lradius 41.493
lwrist 3.51183
lhand -21.1936 8.53339
lfingers 7.12502
lthumb 5.18741 38.4499
rfemur 0.342881 18.6769 21.4965
rtibia 16.9271
rfoot -5.12176 -29.9811
rtoes -6.03255
lfemur -48.3108 -12.4903 -30.516
ltibia 76.0614
lfoot -29.9648 13.8802
ltoes -7.76188
243
root 13.3926 19.672 0.377146 -81.4887 -84.7858 84.586
lowerback 18.327 1.69463 -2.67544
upperback 7.09862 1.07422 -4.14446
thorax -2.61222 0.335456 -3.08297
lowerneck -11.0787 1.98476 4.9747
upperneck 20.5352 1.47377 -0.0606363
head 8.24566 0.965055 -0.714909
rclavicle 5.96354e-016 -1.86858e-014
rhumerus -38.7415 5.34572 -84.2702
rradius 50.718
rwrist -24.8957
rhand -17.5718 -1.64807
rfingers 7.12502
rthumb 8.68356 -31.4495
lclavicle 5.96354e-016 -1.86858e-014
lhumerus -14.4207 -19.9123 75.0013
lradius 42.0733
lwrist 3.84154
lhand -21.2263 8.82656
lfingers 7.12502
lthumb 5.15581 38.7438
rfemur 0.272247 18.7106 21.6784
rtibia 17.4388
rfoot -6.0647 -30.3102
rtoes -1.70059
lfemur -49.5129 -13.1939 -30.7774
ltibia 77.8939
lfoot -30.1032 14.3252
ltoes -8.84284
244
root 13.4402 19.5234 0.360798 -75.5356 -84.4842 78.4613
lowerback 18.5958 1.63524 -2.65657
upperback 7.15357 0.994711 -3.99023
thorax -2.69874 0.294797 -2.9193
lowerneck -11.2245 1.84844 4.85484
upperneck 20.4942 1.34178 -0.204861
head 8.25342 0.882145 -0.755548
rclavicle -8.15017e-015 5.96354e-015
rhumerus -38.9731 5.3336 -83.829
rradius 50.932
rwrist -25.2645
rhand -17.4467 -2.0058
rfingers 7.12502
rthumb 8.80433 -31.8021
lclavicle -8.15017e-015 5.96354e-015
lhumerus -14.2718 -20.085 74.952
lradius 42.7425
lwrist 4.24879
lhand -21.1586 9.16035
lfingers 7.12502
lthumb 5.22125 39.076
rfemur -0.0154427 18.4505 21.919
rtibia 18.4171
rfoot -7.66561 -30.6526
rtoes 2.729
lfemur -50.6523 -13.9262 -31.0325
ltibia 79.6627
lfoot -30.2067 14.7707
ltoes -9.72169
245
root 13.4888 19.3811 0.344399 -70.2595 -84.1603 73.0028
lowerback 18.8377 1.58393 -2.62932
upperback 7.2133 0.931437 -3.80601
thorax -2.76554 0.262188 -2.73039
lowerneck -11.3436 1.70534 4.752
upperneck 20.4385 1.20102 -0.359913
head 8.25136 0.794998 -0.803826
rclavicle -3.37934e-015 1.63003e-014
rhumerus -39.141 5.28592 -83.3758
rradius 51.0948
rwrist -25.6758
rhand -17.3761 -2.37694
rfingers 7.12502
rthumb 8.87246 -32.1704
lclavicle -3.37934e-015 1.63003e-014
lhumerus -14.1768 -20.2649 74.9483
lradius 43.4716
lwrist 4.72181
lhand -20.9445 9.46783
lfingers 7.12502
lthumb 5.42793 39.3783
rfemur -0.538963 17.7632 22.1574
rtibia 19.757
rfoot -9.91894 -31.0843
rtoes 5.81423
lfemur -51.7647 -14.6648 -31.2434
ltibia 81.34
lfoot -30.2981 15.1115
ltoes -10.1043
246
root 13.5374 19.248 0.33006 -65.9987 -83.881 68.5223
lowerback 19.0741 1.55605 -2.51688
upperback 7.28017 0.915483 -3.60376
thorax -2.81878 0.253772 -2.57992
lowerneck -11.4146 1.54511 4.6901
upperneck 20.3769 1.03625 -0.543118
head 8.23827 0.69641 -0.871166
rclavicle -1.49089e-015 4.41302e-014
rhumerus -39.238 5.14619 -82.9304
rradius 51.1804
rwrist -26.0907
rhand -17.3845 -2.74611
rfingers 7.12502
rthumb 8.86433 -32.5399
lclavicle -1.49089e-015 4.41302e-014
lhumerus -14.1593 -20.4772 74.9832
lradius 44.2681
lwrist 5.2779
lhand -20.6705 9.65948
lfingers 7.12502
lthumb 5.69246 39.563
rfemur -1.21991 16.6003 22.3613
rtibia 21.3278
rfoot -12.503 -31.2657
rtoes 7.97085
lfemur -52.8064 -15.3177 -31.3818
ltibia 82.9005
lfoot -30.4051 15.2857
ltoes -9.91021
